<?xml version="1.0" ?><!DOCTYPE svg PUBLIC "-//W3C//DTD SVG 20000802 //EN" "http://www.w3c.org/TR/2000/CR-SVG-20000802/DTD/svg-20000802.dtd"><svg xmlns="http://www.w3.org/2000/svg" width="384" height="238"><rect x="279.0" y="175.0" width="47.0" height="10.0" fill="#d50589"/><rect x="258.0" y="125.0" width="73.0" height="48.0" fill="#77dc25"/><rect x="137.0" y="125.0" width="187.0" height="68.0" fill="#62866e"/><rect x="91.0" y="27.0" width="139.0" height="159.0" fill="#25d81d"/><rect x="206.0" y="180.0" width="15.0" height="18.0" fill="#0b8319"/><rect x="196.0" y="143.0" width="111.0" height="86.0" fill="#edac52"/><rect x="44.0" y="58.0" width="13.0" height="147.0" fill="#43e430"/><rect x="81.0" y="6.0" width="46.0" height="55.0" fill="#d12a55"/><rect x="334.0" y="59.0" width="37.0" height="129.0" fill="#b39eee"/><rect x="194.0" y="183.0" width="8.0" height="21.0" fill="#11e526"/><rect x="44.0" y="190.0" width="61.0" height="27.0" fill="#81d1b0"/><rect x="154.0" y="68.0" width="38.0" height="131.0" fill="#7e5963"/><rect x="10.0" y="178.0" width="296.0" height="25.0" fill="#103783"/><rect x="306.0" y="127.0" width="76.0" height="8.0" fill="#64a307"/><rect x="119.0" y="132.0" width="28.0" height="72.0" fill="#346441"/><rect x="194.0" y="12.0" width="78.0" height="66.0" fill="#173323"/><rect x="218.0" y="195.0" width="76.0" height="37.0" fill="#7210db"/><rect x="41.0" y="131.0" width="162.0" height="65.0" fill="#a5eb7a"/></svg>